<svg width="115px" height="125px" viewBox="0 0 115 125" version="1.1" xmlns="http://www.w3.org/2000/svg" xmlns:xlink="http://www.w3.org/1999/xlink"><title>East of the Atlantic</title><desc>The old world</desc><defs></defs><g id="east" stroke="none" stroke-width="1" fill="none" fill-rule="evenodd"><g transform="translate(-181, -171)" fill="#333333"><g transform="translate(181, 171)"><path d="M16,44 C6,48 0,64 0,67 C0,70 6,79 7,80 C8,81 23,80 26,82 C28,84 35,120 37,122 C38,124 46,125 50,122 C54,120 64,107 64,104 C65,102 62,95 63,93 C69,91 79,76 77,74 C76,72 70,77 67,76 C64,76 54,57 54,56 C54,55 55,53 57,54 C59,54 67,71 70,72 C73,72 83,62 82,61 C81,59 75,62 70,51 C71,50 90,53 92,55 C95,57 98,72 101,72 C103,72 102,50 104,50 C106,49 111,63 114,61 C115,45 96,8 63,0 C63,6 58,13 54,15 C52,16 50,11 46,11 C43,11 33,18 33,19 C33,21 34,24 37,24 C39,24 43,15 45,15 C46,15 45,24 43,26 C34,26 27,28 25,30 C22,32 25,35 23,36 C21,37 18,34 17,34 C15,35 15,41 15,41 C15,42 18,44 19,42 C21,41 29,36 31,36 C32,36 37,41.51 37,42 C36,42 34,43 34,43 C33,44 34,45 35,45 C37,45 39,43 39,41 C39,39 34,36 34,35 C43,37 41,44 43,44 C45,45 49,34 51,33 C53,32 60,36 61,37 C61,38 62,38 60,39 C59,40 49,40 49,41 C48,41 47,43 49,45 C50,46 56,44 57,46 C58,47 57,51 54,52 C34,56 33,47 30,45 C27,43 19,43 16,44 Z"></path><path d="M19,26 C19,24 27,20 27,20 C28,20 28,27 27,28 C26,28 19,27 19,26 Z"></path></g></g></g></svg>
