<svg width="82px" height="34px" viewBox="0 0 82 34" version="1.1" xmlns="http://www.w3.org/2000/svg" xmlns:xlink="http://www.w3.org/1999/xlink"><title>Linking</title><desc>Linking bordering countries</desc><defs></defs><g id="linking" stroke="none" stroke-width="1" fill="none" fill-rule="evenodd"><g transform="translate(-37, -44)"><g transform="translate(37, 46)"><ellipse id="point1" fill="#FFFFFF" cx="5" cy="26" rx="5" ry="5"></ellipse><ellipse id="point2" fill="#FFFFFF" cx="20" cy="14" rx="5" ry="5"></ellipse><ellipse id="point3" fill="#FFFFFF" cx="42" cy="14" rx="5" ry="5"></ellipse><path d="M6,27 C6,17 13,-14 22,13 C25,4 38,-10 43,13 C45,8 50,4 57,2 M61,1 C62,1 63,1 65,1 M69,1 C70,1 71,1 73,1 M77,3 C78,3 79,4 80,4" stroke="#FFFFFF" stroke-width="3"></path></g></g></g></svg>
