<svg width="97px" height="134px" viewBox="0 0 97 134" version="1.1" xmlns="http://www.w3.org/2000/svg" xmlns:xlink="http://www.w3.org/1999/xlink"><title>West of the Atlantic</title><desc>The new world</desc><defs></defs><g id="west" stroke="none" stroke-width="1" fill="none" fill-rule="evenodd"><g transform="translate(-47, -171)" fill="#FFFFFF"><g transform="translate(47, 171)"><path d="M6,7 C5,8 7,10 11,7 C16,5 20,0 19,1 C17,1 7,6 6,7 Z"></path><path d="M0,17 C-0,16 17,6 17,6 C17,6 17,9 20,10 C22,12 38,12 38,14 C39,16 32,19 32,20 C32,22 41,27 43,27 C45,27 43,18 43,16 C43,15 59,22 59,24 C59,25 53,27 53,29 C53,30 57,31 57,32 C57,33 49,40 48,40 C47,40 47,44 47,45 C47,46 42,49 42,50 C42,51 45,56 45,57 C45,58 44,58 43,58 C43,58 40,51 39,51 C38,51 25,57 25,59 C25,60 32,66 32,66 C33,65 33,62 33,62 C34,62 37,61 37,62 C38,63 35,68 35,69 C36,70 42,68 42,69 C43,69 41,73 41,74 C42,75 50,78 50,78 C51,77 53,72 54,71 C56,70 78,75 79,76 C80,77 81,80 82,81 C83,81 95,81 96,84 C98,87 89,109 58,133 C56,133 55,131 54,131 C54,130 61,107 60,106 C60,105 54,104 53,103 C53,102 45,92 45,91 C45,90 50,80 49,80 C48,80 19,67 18,66 C17,65 12,49 10,49 C9,49 12,60 12,61 C11,61 10,61 10,61 C9,61 4,44 4,41 C4,37 13,16 10,15 C7,15 0,17 0,17 Z"></path><path d="M25,9 C25,7 42,1 43,2 C43,3 39,6 40,7 C41,9 50,11 50,12.625 C49,13 50,16 49,16 C48,17 45,15 44,14 C43,13 45,12 43,12 C42,12 24,10 25,9 Z"></path><path d="M47,0 C45,0 43,4 43,4 C43,5 61,17 62,16 C63,15 62,7 61,5 C60,3 49,0 47,0 Z"></path><path d="M42,59 C41,59 38,58 41,60 C44,62 47,63 49,64 C51,64 55,63 53,62 C50,60 43,59 42,59 Z"></path><path d="M55,62 C54,63 53,65 54,65 C56,65 60,64 61,64 C62,63 63,63 61,62 C59,62 57,62 55,62 Z"></path><path d="M60,24 C59,24 58,29 59,29 C60,29 64,29 64,28 C64,27 61,24 60,24 Z"></path></g></g></g></svg>
